
<global>
amp_veltrack=0
ampeg_attack=0.005
ampeg_release=0.35
</global>

<group>
group_label=PP
lpc_hicc1=42
lpc_locc1=0

<region>
end=285520
hikey=G#5
hivel=127
lokey=G5
loop_end=238830
loop_mode=loop_continuous
loop_start=73467
loop_xfade=33652
lovel=1
lpc=a80QQrvDqsJT+qhCc6JIwimQ4kHqLp/BU/heQRaDM8FTrytBBuEPwXBza0GeaqTBr3cSQeJLBEFAtjXBlNTfQMpWJMHk6EBBljHMv3BpYMDr+Gi/TQJbv2pXDUFIaPbA
lpc_rms=-40.27
pitch_keycenter=G#5
sample=SoloCello_harmonic_PP_G#4.opus
</region>

<region>
end=302034
hikey=G#4
hivel=127
lokey=G4
loop_end=252643
loop_mode=loop_continuous
loop_start=77716
loop_xfade=35598
lovel=1
lpc=k8GJQhcUN8NUcCVDVMZjwnf93kG06CLCMITRQdE3YcFLNHZB7b2OwfUAaEEeqyXBgkOTQP0eoEHwdAbCXzFjQc6eH75mvShBaA+JwU1vq0CN6za/RRmZQZFb8cEbvWBB
lpc_rms=-37.17
pitch_keycenter=G#4
sample=SoloCello_harmonic_PP_G#3.opus
</region>

<region>
end=326399
hikey=C8
hivel=127
lokey=F6
loop_end=273024
loop_mode=loop_continuous
loop_start=83986
loop_xfade=38470
lovel=1
lpc=bco4QfCvqcF4T4lBrohKwWSOJ0G5l/TAUQy3QKknjsCkuFlASlQ/wF5+H0DjGJ2/6sEOPtIZFT/gbVO/FzefP6jPGMHfm0VBqrKVwO2HwD+6b6+/gn5xP77Mg78RkkQ/
lpc_rms=-50.71
pitch_keycenter=F#6
sample=SoloCello_harmonic_PP_F#5.opus
</region>

<region>
end=323510
hikey=F#5
hivel=127
lokey=F5
loop_end=270607
loop_mode=loop_continuous
loop_start=83242
loop_xfade=38130
lovel=1
lpc=R3yrQcNoTMKW1kpCaiX6wQ7dnkFDF1jBDrbWQO0cr8A3DpZA5PeLwDpzC0GhYy7B6HXQQOzyHUDeOdbAuyOOQKVrJ8BZTKdA7peLwB26gz+zLoa/IN2kPxqqa79ftEA9
lpc_rms=-44.82
pitch_keycenter=F#5
sample=SoloCello_harmonic_PP_F#4.opus
</region>

<region>
end=306628
hikey=F#4
hivel=127
lokey=F4
loop_end=256486
loop_mode=loop_continuous
loop_start=78898
loop_xfade=36140
lovel=1
lpc=lg0IQhCQrMKAwJlCXevVwTQMKUHCcovBwL9FQR+fa8DGlnY/fZVtwO+RpUBw6nnAJA5pQCy9PUDdexfBGgqtQLNV/jyVgT5Arh+FwF5xEsBDMJVAvqZvQKiFJME9KqhA
lpc_rms=-44.69
pitch_keycenter=F#4
sample=SoloCello_harmonic_PP_F#3.opus
</region>

<region>
end=310756
hikey=E6
hivel=127
lokey=D#6
loop_end=259939
loop_mode=loop_continuous
loop_start=79961
loop_xfade=36626
lovel=1
lpc=EX6kQcadI8LQOBJCjDrbwWWxt0EMQJHBLVhhQYIoJcF/jMJA3jufv9ZsBcDZy0FA3d4cwG8GT0CQno/AfSeuQPgct8DW7oJAAWQ3wWogV0Hzl3zAzu8OQALugcDoCwhA
lpc_rms=-44.02
pitch_keycenter=E6
sample=SoloCello_harmonic_PP_E5.opus
</region>

<region>
end=304061
hikey=E5
hivel=127
lokey=D#5
loop_end=254339
loop_mode=loop_continuous
loop_start=78238
loop_xfade=35837
lovel=1
lpc=PDncQVx3icLTjIVCr60MwqdRjUGXV13BTx86QcD3EMFRCgZBtprpwJme+kA9GCnBwPC0QBKd1UBRxkXB1t4CQerEM8BnpJVA7V2uwJ5+CEDaZpe/xXevv9AIn0Af+SfA
lpc_rms=-43.36
pitch_keycenter=E5
sample=SoloCello_harmonic_PP_E4.opus
</region>

<region>
end=318873
hikey=E4
hivel=127
lokey=D#4
loop_end=266729
loop_mode=loop_continuous
loop_start=82049
loop_xfade=37583
lovel=1
lpc=FF/VQZhJh8IDTHZCPGvCwS70OkGwj4HBPDA0Qefvl79pnBfA+de2vzLkX0AlAGjAxj4YQDCui0DPqQbBsMyVQAseKcDw1ZdAxqtiwBr2RL9WUSxAc5M+QOTV4MB8M0RA
lpc_rms=-45.75
pitch_keycenter=E4
sample=SoloCello_harmonic_PP_E3.opus
</region>

<region>
end=324904
hikey=D6
hivel=127
lokey=C#6
loop_end=271773
loop_mode=loop_continuous
loop_start=83601
loop_xfade=38294
lovel=1
lpc=8j4YQYswkcHKYHRBH5owwd15DEFz6tXAXdKKQFPcDsDpnZA/n583vzk6ND8LROM8aGGXv7iiC0D+sgrAleDHP7Nomr/HE6c/FRd1v5BEgj8/zsvAjB7ZQGrTiL9hQni+
lpc_rms=-51.96
pitch_keycenter=D6
sample=SoloCello_harmonic_PP_D5.opus
</region>

<region>
end=305206
hikey=D5
hivel=127
lokey=C#5
loop_end=255296
loop_mode=loop_continuous
loop_start=78533
loop_xfade=35972
lovel=1
lpc=GZO4QUx3VMLcoUdCWBECwk3atkElmoTBvId1QZCIcsGF0DlBDJT5wChr2ECXWxzBPrncQInvhUAH8DjBGqogQccOLcD1ZYO//twRQEV1S8CpRn5APvSYwHsijUAOIAHA
lpc_rms=-41.67
pitch_keycenter=D5
sample=SoloCello_harmonic_PP_D4.opus
</region>

<region>
end=363185
hikey=D4
hivel=127
lokey=C#4
loop_end=303794
loop_mode=loop_continuous
loop_start=93451
loop_xfade=42806
lovel=1
lpc=QgQBQmYAosIu2IlCH8uwwQ8FL0FWgHrBH17qQNpTPT2sE7m/Q7pTv/VjTUB005jAF9SuQKBcQUANziLBq56oQMCp6748DHpAKRmLwGNmMsBR471AMD65PuTGpcAoPBxA
lpc_rms=-44.86
pitch_keycenter=D4
sample=SoloCello_harmonic_PP_D3.opus
</region>

<region>
end=315684
hikey=C6
hivel=127
lokey=B5
loop_end=264061
loop_mode=loop_continuous
loop_start=81229
loop_xfade=37207
lovel=1
lpc=Oq4IQUvdhMETAHFBd949wcA1IkHhXQHB5qG2QPoEY8B6IA9A3MkMwAb+CkDFNrW/blIqPkxM0D8l5RrAFcflPxFUqL9K1gFA5VkFwCnL0D+EQcC/YPEmQPvNucDOIXlA
lpc_rms=-49.36
pitch_keycenter=C6
sample=SoloCello_harmonic_PP_C5.opus
</region>

<region>
end=332534
hikey=C5
hivel=127
lokey=B4
loop_end=278156
loop_mode=loop_continuous
loop_start=85564
loop_xfade=39193
lovel=1
lpc=uTiIQT/DKcJsBSRCQ7egwUmYJUE/0xzBfQDrQG/Ci8BYDglADyZDwP67q0A3bqnA0msZQAOqcUDJDQXBpqqqQIXvn764OZY/GNx7v8pgC8DiKMM/9EfXP++D978mHzc/
lpc_rms=-47.01
pitch_keycenter=C5
sample=SoloCello_harmonic_PP_C4.opus
</region>

<region>
end=316475
hikey=C4
hivel=127
lokey=C4
loop_end=264723
loop_mode=loop_continuous
loop_start=81432
loop_xfade=37300
lovel=1
lpc=ss4mQmKczcKbiahCTJTHwdW5gkG3l83BKAZMQW2obT9NajvAKPOMwIvg9ECHy6nAvKVAQOFfmkCjAibB6BGMQDKZ9z6947FAYcK3wC8CmMBu4N5AmcDSP+3Oq8Bs8RBA
lpc_rms=-42.43
sample=SoloCello_harmonic_PP_C3.opus
</region>

<region>
end=324645
hikey=A#5
hivel=127
lokey=A5
loop_end=271557
loop_mode=loop_continuous
loop_start=83534
loop_xfade=38263
lovel=1
lpc=zCL8QJYKg8Fp13tB24E7wUxxIkH3bgDBq6yhQDSKiMBsl5JARBRwwLRtHUDqXKO/p50evrD/mz8VwbW/o7jIP76r/b+hRCpA8ngfwCNSPz8WimI/Zhm/vesnLr88Q+e+
lpc_rms=-52.04
pitch_keycenter=A#5
sample=SoloCello_harmonic_PP_A#4.opus
</region>

<region>
end=325482
hikey=A#4
hivel=127
lokey=A4
loop_end=272257
loop_mode=loop_continuous
loop_start=83750
loop_xfade=38362
lovel=1
lpc=J/wZQZkoscGM1plBrGwEwTNLfkAhVIbAg5NSQJxlCcBwa9w/ACHuvwJx9z+iu7u/2mQPPtpqK0Dn12XATWbNP/5bP70h7xo/4yeBvw/zBDz/OUk8ULGpP88Z8r/nNFk/
lpc_rms=-54.55
pitch_keycenter=A#4
sample=SoloCello_harmonic_PP_A#3.opus
</region>
</group>

<group>
group_label=MF
lpc_hicc1=84
lpc_locc1=43

<region>
end=300158
hikey=G#5
hivel=127
lokey=G5
loop_end=251074
loop_mode=loop_continuous
loop_start=77234
loop_xfade=35377
lovel=1
lpc=Fx6/Qa6LU8LOj0lCvx0Kwj7A4kEVmrnBNjeVQXYJe8Ha7kNB8l5lwTOtqUHhjZ7BMr9AQYhw4MARZatAQumNwIymgEDLtVnAIozrQEfuP8EbT+9Atn6jv8j+okBzlbPA
lpc_rms=-34.78
pitch_keycenter=G#5
sample=SoloCello_harmonic_MF_G#4.opus
</region>

<region>
end=294501
hikey=G#4
hivel=127
lokey=G4
loop_end=246342
loop_mode=loop_continuous
loop_start=75778
loop_xfade=34710
lovel=1
lpc=bCU6QskhAsMqOAxDYISxwmPqgUJhc1XCRTXxQVlre8FR4qtBLs0hwl0MNUJoyvTBR+tVQfu7vj+YK5HANqwuvby5GEALfni+6Rjmv6M1FcFaYGtBrI2YQBMbkMF14AhB
lpc_rms=-27.10
pitch_keycenter=G#4
sample=SoloCello_harmonic_MF_G#3.opus
</region>

<region>
end=305303
hikey=C8
hivel=127
lokey=F6
loop_end=255378
loop_mode=loop_continuous
loop_start=78557
loop_xfade=35984
lovel=1
lpc=3oUgQTWoiMFyZUtBO0kYwXQcD0HTAt7A+feBQB2DPcD/r0pA+GEuwMVIE0BEmam/kgW/PlTTGj/wDY2/gfsGQE4hJMHBK0dBqBuxwAyXUEBXFVPA5RD5P9Os3j1qlsK+
lpc_rms=-45.96
pitch_keycenter=F#6
sample=SoloCello_harmonic_MF_F#5.opus
</region>

<region>
end=299361
hikey=F#5
hivel=127
lokey=F5
loop_end=250407
loop_mode=loop_continuous
loop_start=77029
loop_xfade=35283
lovel=1
lpc=L3+nQQabR8J0TVFCLTYRwgYpyEEjsZnB4z1xQXQWScHusj5B6iNwwRoplkFLgH/BdeTzQPHIM0CZDr7AWWg6QE+W9L8QNpJA7D5LwGwaAED6XpvAfyrEQOABgMAgR6Y/
lpc_rms=-36.01
pitch_keycenter=F#5
sample=SoloCello_harmonic_MF_F#4.opus
</region>

<region>
end=294755
hikey=F#4
hivel=127
lokey=F4
loop_end=246554
loop_mode=loop_continuous
loop_start=75843
loop_xfade=34740
lovel=1
lpc=J5VjQhTSGcM+DRtDZjmhwl6/PELpqy/Cmg6xQaX2O8D7n7ZALkyRwR2JsEGRjv3AJ7qZv0hAVUBhKijBG2HxQD781EBBjU/AqrTKwC5Gg8CziAZB8l7xQKIclcEVJBxB
lpc_rms=-32.37
pitch_keycenter=F#4
sample=SoloCello_harmonic_MF_F#3.opus
</region>

<region>
end=311118
hikey=E6
hivel=127
lokey=D#6
loop_end=260242
loop_mode=loop_continuous
loop_start=80054
loop_xfade=36669
lovel=1
lpc=kmIPQZwHgMGi0UxBiCkVwZ3lDkHgpu3Ac9iYQMhgacAlQ1VAn8gmwEMaCUAGpe2/TtnXPwHxQL+fnQ8+onf/PniRoL80USFAow4XwbRaPEEtIcPAUQtSQMNbPsB3Fdk/
lpc_rms=-45.35
pitch_keycenter=E6
sample=SoloCello_harmonic_MF_E5.opus
</region>

<region>
end=286359
hikey=E5
hivel=127
lokey=D#5
loop_end=239531
loop_mode=loop_continuous
loop_start=73683
loop_xfade=33751
lovel=1
lpc=8woFQjn1mMIsdZ1CDO1mwmHxM0JJDxTCv23gQSmHmcEw/DBBleEUwcd7JUEOgivBRysAQTWDR0B86g7By96bQOQRrcB09WpBdUdCwS00sUCnbQPBB1ktQRIYhcAaYIW/
lpc_rms=-31.68
pitch_keycenter=E5
sample=SoloCello_harmonic_MF_E4.opus
</region>

<region>
end=302600
hikey=E4
hivel=127
lokey=D#4
loop_end=253117
loop_mode=loop_continuous
loop_start=77862
loop_xfade=35665
lovel=1
lpc=poJIQjdFD8OMtx5DYku4wlRBTEK/6S/Cj03DQdhR0sAXdEBB7GTLwRY3q0G398bAuNgCwJQ3HEFjVE/BGUZCQK2yskB2pzw/4Gn0wAUR9L8ueBJBAnuuQJZ2esGv2NxA
lpc_rms=-31.47
pitch_keycenter=E4
sample=SoloCello_harmonic_MF_E3.opus
</region>

<region>
end=303172
hikey=D6
hivel=127
lokey=C#6
loop_end=253595
loop_mode=loop_continuous
loop_start=78009
loop_xfade=35732
lovel=1
lpc=ebXkQFTtOsEDdgVB30q/wIOInkB9L3vAnuQ2QJzD9L/6Aqs/xKh0v36NeD/03A2/yGeqvY5zGz/U5xG/19FqP0lku7+ylwlAP4IjwNvVXEBnuf7AY3HWQBz2jr9/lNM9
lpc_rms=-46.05
pitch_keycenter=D6
sample=SoloCello_harmonic_MF_D5.opus
</region>

<region>
end=308591
hikey=D5
hivel=127
lokey=C#5
loop_end=258128
loop_mode=loop_continuous
loop_start=79404
loop_xfade=36371
lovel=1
lpc=74rMQYlNdsICqHNCDIMYwvVpvkGaWWPBBqnEQIXNjcBd6ANBB4sowQuCPkGe9GfBDlVIQcblNj4cgTvB0CUzQSm+hsBMNwtAiQJKwJrAIz+5PY8/T19LP1RnjL/WIT4/
lpc_rms=-36.22
pitch_keycenter=D5
sample=SoloCello_harmonic_MF_D4.opus
</region>

<region>
end=304306
hikey=D4
hivel=127
lokey=C#4
loop_end=254544
loop_mode=loop_continuous
loop_start=78301
loop_xfade=35866
lovel=1
lpc=/l6GQnicN8PUzUFDBSLfwrLpikLPjGfCa4rLQWt8AT+5r0jAsQo4wTJLl0HifYPAXkGSwIdfi0D0AynBQUEQQVZEk0C74/PAoc+DQHHqIsFLsmpBECacwNEp+cDZDMlA
lpc_rms=-30.31
pitch_keycenter=D4
sample=SoloCello_harmonic_MF_D3.opus
</region>

<region>
end=303875
hikey=C6
hivel=127
lokey=B5
loop_end=254183
loop_mode=loop_continuous
loop_start=78190
loop_xfade=35815
lovel=1
lpc=LUnbQEuZQsGb5S1BxPwUwbGN/0CvXdHAKO+rQDJOjsBSzXFAPPlLwKFtMUCzaPm/sY6BP8RaNz1px3C/n8zaP0mKFcAa3ExA3Hx3wNtumUAvEbvAg+HqQKcPFsGt051A
lpc_rms=-45.79
pitch_keycenter=C6
sample=SoloCello_harmonic_MF_C5.opus
</region>

<region>
end=304339
hikey=C5
hivel=127
lokey=B4
loop_end=254571
loop_mode=loop_continuous
loop_start=78309
loop_xfade=35870
lovel=1
lpc=6MBIQUO08cEsAOlB4EuEwbqDJkF3yPXAb8iKQDZkGsDwcSFAYxWBwOzenUBDdaTAV4R9QF+n8D9o++rAOU38QLnEwsBmwIxACXYxwOdPoD/bEbC+Nc0SQK0Gh8D3nxlA
lpc_rms=-39.56
pitch_keycenter=C5
sample=SoloCello_harmonic_MF_C4.opus
</region>

<region>
end=288362
hikey=C4
hivel=127
lokey=C4
loop_end=241207
loop_mode=loop_continuous
loop_start=74198
loop_xfade=33987
lovel=1
lpc=0ZzpQqdjm8Ncs5ZDE2caw69m1UJoF8DCBoIvQqryVsGo5pRBTZcewlheIEKKvwLB9o0LwaiSgEEGBo3BXTz5P8MdPkFMk4vAQMcewQUHv8DSw81BAlUFPt+IDcKqWbJB
lpc_rms=-24.76
sample=SoloCello_harmonic_MF_C3.opus
</region>

<region>
end=305024
hikey=A#5
hivel=127
lokey=A5
loop_end=255144
loop_mode=loop_continuous
loop_start=78486
loop_xfade=35951
lovel=1
lpc=pMj1QJJ3ZcGLqFZBLwcjwYLyBkHANM7ARAOWQCBahMAC3oRA7r15wGSkakAFu3PA/s5ZQHQwgL9Nk3W/Ju2XP7wksr9+xe8/iUygvxGghz3Selo/p6+FvxMz2j8GogjA
lpc_rms=-41.15
pitch_keycenter=A#5
sample=SoloCello_harmonic_MF_A#4.opus
</region>

<region>
end=301423
hikey=A#4
hivel=127
lokey=A4
loop_end=252132
loop_mode=loop_continuous
loop_start=77559
loop_xfade=35526
lovel=1
lpc=/8BQQe6ABMIhrgZCJfKfwQoTS0EuMRzB8NmmQGreRsBMbKJAJAXQwB43vkChsMPAScSwQEYVJL+Tc5DAVEG7QJ9JksDN8odAsaaGwPt94T8v+BS/1aaPQDtO2sBv4UdA
lpc_rms=-40.89
pitch_keycenter=A#4
sample=SoloCello_harmonic_MF_A#3.opus
</region>
</group>

<group>
group_label=FF
lpc_hicc1=127
lpc_locc1=85

<region>
end=295053
hikey=G#5
hivel=127
lokey=G5
loop_end=246804
loop_mode=loop_continuous
loop_start=75920
loop_xfade=34776
lovel=1
lpc=MAXPQdtJVcJZaUVCj+wIwrOw3kFFg7XBkCuIQamrJMHvEL1AMpnrwFSIXkF+S1rBcsm2QGxbGUCL3ITARnOHQKLjkMAQVkFASeB4QEBf1cACaQNA/qkCQMPeAUC46WbA
lpc_rms=-27.91
pitch_keycenter=G#5
sample=SoloCello_harmonic_FF_G#4.opus
</region>

<region>
end=294557
hikey=G#4
hivel=127
lokey=G4
loop_end=246389
loop_mode=loop_continuous
loop_start=75792
loop_xfade=34717
lovel=1
lpc=f74tQi843sI7kNdCNV2Iwm2ibULAEUvCEAz2QQJNtcHRl8JBNs+UwWyPNkEjs1bBoPDuQBFltkAJhqvAIqOfQIPoHsEfOCVBFX4dwa+rHEEc+DrBzgOVQV8ypsFx0BZB
lpc_rms=-17.20
pitch_keycenter=G#4
sample=SoloCello_harmonic_FF_G#3.opus
</region>

<region>
end=297173
hikey=C8
hivel=127
lokey=F6
loop_end=248577
loop_mode=loop_continuous
loop_start=76466
loop_xfade=35025
lovel=1
lpc=EPBUQRW2pcHULWNB3VQgwfjNFEHiNczAkA6rQDICp8BevFRAdjsFwEe4AkBRjXK/fGrdvtvCCEBi3TDAqqOIQK9ubMEUp4FBfiDawLMSfkB2q2PAjTraP2+mor81bss/
lpc_rms=-33.83
pitch_keycenter=F#6
sample=SoloCello_harmonic_FF_F#5.opus
</region>

<region>
end=330622
hikey=F#5
hivel=127
lokey=F5
loop_end=276556
loop_mode=loop_continuous
loop_start=85072
loop_xfade=38968
lovel=1
lpc=b0uPQettDsKdggRCWQ3BwZgnnEGfD3jBCPcrQbOg58Au1uRAk/fqwD1GH0FLr+3AT3v2Po1WkkAGq4fAso9fQBK6qsAfBtlAY+d4wP83NUCsIZnAfvgCQVubocBIxW8/
lpc_rms=-28.61
pitch_keycenter=F#5
sample=SoloCello_harmonic_FF_F#4.opus
</region>

<region>
end=304978
hikey=F#4
hivel=127
lokey=F4
loop_end=255106
loop_mode=loop_continuous
loop_start=78474
loop_xfade=35945
lovel=1
lpc=UfE8Qg4pAMMr/AJDD1uMwrRNJ0KBpiHClVvpQWy9gsFoJjZBYNF9wRx6mkGm+xzBg7t4wIH9jEGQ2MTBVWixQek5gsFg7V9BEc9FweNZhT91GpxA7mRmQQur8sFC6nBB
lpc_rms=-22.85
pitch_keycenter=F#4
sample=SoloCello_harmonic_FF_F#3.opus
</region>

<region>
end=292872
hikey=E6
hivel=127
lokey=D#6
loop_end=244979
loop_mode=loop_continuous
loop_start=75359
loop_xfade=34518
lovel=1
lpc=dTdRQXcEpsEpfWBBxGYPwUa/9kAyCMPARnWJQKJ8RMBJOgdA+2VKv1vQ6D62X24+XkhcvxdK+D83wgTAQIUmQEreQMBAxYhAWZ9swa/1hUEaLt/AdPc+QHBoEMBk26Q/
lpc_rms=-34.25
pitch_keycenter=E6
sample=SoloCello_harmonic_FF_E5.opus
</region>

<region>
end=297948
hikey=E5
hivel=127
lokey=D#5
loop_end=249225
loop_mode=loop_continuous
loop_start=76665
loop_xfade=35117
lovel=1
lpc=IxCzQZMaScKqG0VCuIAJwrkF3EG9g7jBubCdQbn+bMHpQTZBD69Cwbs+Q0ExTSvBUyXlQCuwwj84ibHAls3FQDz8/MCSbBhBlpAGwfFW9EDFEdbAMkkaQQMHL8FzIq9A
lpc_rms=-26.18
pitch_keycenter=E5
sample=SoloCello_harmonic_FF_E4.opus
</region>

<region>
end=304268
hikey=E4
hivel=127
lokey=D#4
loop_end=254512
loop_mode=loop_continuous
loop_start=78291
loop_xfade=35862
lovel=1
lpc=vtcEQuo1scIPC7NCzVBFwjDi9UGpOtnBVh+PQTz1JMGmCRJBM0wtwVR0H0HOkMHALhvHPpftGEFlmnHBHHw8QfIUGMHtYCJBgVOMwJXlacDarGlAezKIQGVAFMGVuoxA
lpc_rms=-24.59
pitch_keycenter=E4
sample=SoloCello_harmonic_FF_E3.opus
</region>

<region>
end=303945
hikey=D6
hivel=127
lokey=C#6
loop_end=254242
loop_mode=loop_continuous
loop_start=78208
loop_xfade=35824
lovel=1
lpc=Djc3QaaTmcHmemJBKfsVwQdt9UDKjczAYUytQIRcbMB/PBdAE2ndv3lNzT9Gz1a/aWKtPZVbbj9ZQYm/U8qrPzMuBMACzFRA7jqMwJxyy0B4TFvBa/I6QbhZGsDUsdu9
lpc_rms=-34.55
pitch_keycenter=D6
sample=SoloCello_harmonic_FF_D5.opus
</region>

<region>
end=296755
hikey=D5
hivel=127
lokey=C#5
loop_end=248227
loop_mode=loop_continuous
loop_start=76358
loop_xfade=34976
lovel=1
lpc=L3UxQt7WwMLzBq5CiPJUwprKG0JaofbBU7uiQTDvh8HTaI9B7l+BwaPGZEE2C2nB3sEmQaUwwb7XZo7AqzWCQA+HWL+ti4lArAS+wAQ+uz+u8ym/kOGKQKcn0r+uLB2/
lpc_rms=-23.67
pitch_keycenter=D5
sample=SoloCello_harmonic_FF_D4.opus
</region>

<region>
end=322289
hikey=D4
hivel=127
lokey=C#4
loop_end=269586
loop_mode=loop_continuous
loop_start=82928
loop_xfade=37986
lovel=1
lpc=qj5cQnQsFsP/+BtDLVitwir/TUKkMznCJcD0Qa07kcGlUoFBhGaYwfIGjUEPLvTAdRl0wGudpkHBxOjBS8CqQaxKWMFGLFFBL+Yrwf7bb0Cu6ey/YtscQWjiicGaVRFB
lpc_rms=-20.82
pitch_keycenter=D4
sample=SoloCello_harmonic_FF_D3.opus
</region>

<region>
end=291646
hikey=C6
hivel=127
lokey=B5
loop_end=243954
loop_mode=loop_continuous
loop_start=75043
loop_xfade=34374
lovel=1
lpc=DcwFQS3cZcGj7kFBjfIgwSndD0E3CvHATqLFQLchmMAonVlAMNYUwOKSAEAWAq2/Ty3NPiUkUD/cg7u//zDwP/aqFcAlGmRAQQqXwE8CwkAG6ezAlAoPQTqRMsG187lA
lpc_rms=-36.73
pitch_keycenter=C6
sample=SoloCello_harmonic_FF_C5.opus
</region>

<region>
end=301831
hikey=C5
hivel=127
lokey=B4
loop_end=252473
loop_mode=loop_continuous
loop_start=77664
loop_xfade=35574
lovel=1
lpc=nQBoQbXkAcJev+1BhYyRwUO1XEHYfjnB+SALQQIXAcG4jxBB5FX1wGsJw0B5B7zAZcNFQGEV4j/0gITABpWGQOo4e8D1MZ1AQNapwJwTZEDW4AvAjvKLQG0josBbQBdA
lpc_rms=-30.53
pitch_keycenter=C5
sample=SoloCello_harmonic_FF_C4.opus
</region>

<region>
end=296389
hikey=C4
hivel=127
lokey=C4
loop_end=247921
loop_mode=loop_continuous
loop_start=76264
loop_xfade=34933
lovel=1
lpc=SfKfQkVHVMNqjE9D0a7awiQdj0ILu2bCTsvJQUhqp8CX2sg/K3uhwK9LFsB6CF5Bl64mwTxfmUFmgxnCMRr0QdxjTcGxvYFBaPyawUnf+EDAkuPA+o+qQR8mvMEgkhhB
lpc_rms=-15.65
sample=SoloCello_harmonic_FF_C3.opus
</region>

<region>
end=298687
hikey=A#5
hivel=127
lokey=A5
loop_end=249843
loop_mode=loop_continuous
loop_start=76855
loop_xfade=35204
lovel=1
lpc=rpWTQOCb9sB5XddAmuSzwEZdtkBDBZrAG6hQQPQHEMDTDgNA0WjDv3hZMz/OXWK/I/2SP/PVCD8xEui/5gzGP4hnt7+LmeY/fMGkv+UHEj9cFeq+qBKEP36BjL6S4GG/
lpc_rms=-40.34
pitch_keycenter=A#5
sample=SoloCello_harmonic_FF_A#4.opus
</region>

<region>
end=312264
hikey=A#4
hivel=127
lokey=A4
loop_end=261200
loop_mode=loop_continuous
loop_start=80349
loop_xfade=36804
lovel=1
lpc=C1wmQT7ZwcFIo7JBM0BUwccfLEGnMRXBySG7QNlQhMB01qxAum3NwAF9oUDM+l7AMrQcQGdXWD6WcyXAg5WvP3W2wD3sJBFA2z1mwP9RDUCC4em/AM1pQDWkj8CZpAlA
lpc_rms=-33.13
pitch_keycenter=A#4
sample=SoloCello_harmonic_FF_A#3.opus
</region>
</group>